<svg width="24" height="24" viewBox="0 0 24 24" fill="none" xmlns="http://www.w3.org/2000/svg">
<path d="M4 12C4 7.58172 7.58172 4 12 4C16.4183 4 20 7.58172 20 12C20 16.4183 16.4183 20 12 20C7.58172 20 4 16.4183 4 12ZM12 5.1431L11.9435 5.14333C12.0479 5.3478 12.1622 5.59468 12.2652 5.86829C12.543 6.60652 12.7951 7.68763 12.3464 8.64328C11.9329 9.52374 11.2205 9.75176 10.6884 9.88924L10.6115 9.90907C10.0941 10.0423 9.8796 10.0976 9.72516 10.332C9.5807 10.5513 9.60676 10.8266 9.77075 11.361C9.78242 11.399 9.79501 11.4391 9.80809 11.4809C9.87322 11.6884 9.95094 11.936 9.99147 12.169C10.0418 12.4586 10.0553 12.8227 9.87241 13.1736C9.68922 13.5251 9.44711 13.7637 9.16163 13.9192C8.89292 14.0656 8.61402 14.1214 8.4025 14.1589L8.32408 14.1728C7.91461 14.2447 7.70691 14.2812 7.50718 14.4952C7.35077 14.6627 7.25339 14.954 7.19691 15.3776C7.17386 15.5505 7.15999 15.7218 7.14574 15.8981L7.13809 15.9919C7.12203 16.1868 7.10227 16.4086 7.05908 16.5983L7.0304 16.7244C8.27958 18.038 10.0442 18.8569 12 18.8569C13.2748 18.8569 14.4683 18.509 15.4909 17.903C15.4001 17.8137 15.297 17.7035 15.1957 17.5759C14.9248 17.2348 14.5742 16.6528 14.6958 15.9684C14.7541 15.6402 14.9303 15.3641 15.1027 15.1504C15.2782 14.9328 15.4905 14.7313 15.6773 14.5594C15.7214 14.5188 15.7638 14.48 15.8045 14.4429C15.9478 14.3121 16.0704 14.2001 16.1751 14.0903C16.2398 14.0226 16.2859 13.9676 16.3171 13.9232C16.3435 13.8856 16.3517 13.8662 16.353 13.8633C16.4109 13.6714 16.3405 13.5307 16.2571 13.4662C16.1944 13.4178 16.0339 13.3458 15.7476 13.5272C15.6363 13.5977 15.5371 13.6604 15.4574 13.7067C15.3976 13.7415 15.2763 13.8119 15.1438 13.8409C15.0716 13.8567 14.913 13.8797 14.7402 13.7985C14.5448 13.7067 14.4552 13.5428 14.4191 13.4303C14.3874 13.3314 14.3862 13.2432 14.3865 13.2019C14.3868 13.1535 14.3911 13.1074 14.3946 13.0739C14.3976 13.0461 14.4011 13.0165 14.405 12.985C14.4343 12.7442 14.4774 12.3901 14.3399 11.8622C14.2292 11.4377 14.0682 11.1148 13.9037 10.785C13.8279 10.6331 13.7514 10.4796 13.6788 10.3141C13.5787 10.0861 13.4686 9.78908 13.488 9.47292C13.5103 9.10756 13.6956 8.80959 13.9942 8.58563C14.3565 8.31379 14.8124 7.69161 15.2068 7.06153C15.3954 6.76016 15.5569 6.47861 15.6713 6.27221C15.6804 6.25583 15.6892 6.23994 15.6976 6.22455C14.6308 5.54006 13.3617 5.1431 12 5.1431Z" fill="#181821" fill-opacity="0.95"/>
</svg>
