<svg width="81" height="81" viewBox="0 0 81 81" fill="none" xmlns="http://www.w3.org/2000/svg">
<path fill-rule="evenodd" clip-rule="evenodd" d="M40.5 80.0635C62.5914 80.0635 80.5 62.1549 80.5 40.0635C80.5 17.9721 62.5914 0.0634766 40.5 0.0634766C18.4086 0.0634766 0.5 17.9721 0.5 40.0635C0.5 62.1549 18.4086 80.0635 40.5 80.0635Z" fill="#EC5C7F"/>
<path fill-rule="evenodd" clip-rule="evenodd" d="M53.75 54.0635H52.5V25.5635C52.5 24.735 51.8284 24.0635 51 24.0635H30C29.1716 24.0635 28.5 24.735 28.5 25.5635V54.0635H27.25C26.8358 54.0635 26.5 54.3993 26.5 54.8135V56.0635H54.5V54.8135C54.5 54.3993 54.1642 54.0635 53.75 54.0635ZM34.5 28.8135C34.5 28.3993 34.8358 28.0635 35.25 28.0635H37.75C38.1642 28.0635 38.5 28.3993 38.5 28.8135V31.3135C38.5 31.7277 38.1642 32.0635 37.75 32.0635H35.25C34.8358 32.0635 34.5 31.7277 34.5 31.3135V28.8135ZM34.5 34.8135C34.5 34.3993 34.8358 34.0635 35.25 34.0635H37.75C38.1642 34.0635 38.5 34.3993 38.5 34.8135V37.3135C38.5 37.7277 38.1642 38.0635 37.75 38.0635H35.25C34.8358 38.0635 34.5 37.7277 34.5 37.3135V34.8135ZM37.75 44.0635H35.25C34.8358 44.0635 34.5 43.7277 34.5 43.3135V40.8135C34.5 40.3993 34.8358 40.0635 35.25 40.0635H37.75C38.1642 40.0635 38.5 40.3993 38.5 40.8135V43.3135C38.5 43.7277 38.1642 44.0635 37.75 44.0635ZM42.5 54.0635H38.5V48.8135C38.5 48.3993 38.8358 48.0635 39.25 48.0635H41.75C42.1642 48.0635 42.5 48.3993 42.5 48.8135V54.0635ZM46.5 43.3135C46.5 43.7277 46.1642 44.0635 45.75 44.0635H43.25C42.8358 44.0635 42.5 43.7277 42.5 43.3135V40.8135C42.5 40.3993 42.8358 40.0635 43.25 40.0635H45.75C46.1642 40.0635 46.5 40.3993 46.5 40.8135V43.3135ZM46.5 37.3135C46.5 37.7277 46.1642 38.0635 45.75 38.0635H43.25C42.8358 38.0635 42.5 37.7277 42.5 37.3135V34.8135C42.5 34.3993 42.8358 34.0635 43.25 34.0635H45.75C46.1642 34.0635 46.5 34.3993 46.5 34.8135V37.3135ZM46.5 31.3135C46.5 31.7277 46.1642 32.0635 45.75 32.0635H43.25C42.8358 32.0635 42.5 31.7277 42.5 31.3135V28.8135C42.5 28.3993 42.8358 28.0635 43.25 28.0635H45.75C46.1642 28.0635 46.5 28.3993 46.5 28.8135V31.3135Z" fill="white"/>
</svg>
