<svg width="267" height="114" viewBox="0 0 267 114" fill="none" xmlns="http://www.w3.org/2000/svg">
<path opacity="0.8" d="M5.50713 41.3694C-0.424861 53.0976 -3.86291 67.9399 0.743075 79.4735C6.16625 93.0532 22.5408 102.078 36.3313 104.17C51.6793 106.498 63.3287 102.192 74.7539 93.0415C86.17 83.8987 101.913 78.3748 116.147 75.8845C138.189 72.0282 168.559 78.1588 188.309 65.7655C204.777 55.4319 216.774 32.5322 205.933 14.3419C201.357 6.66373 194.232 0.70735 186.302 -3.41735C168.253 -12.8059 146.994 -9.36886 127.499 -7.90437C115.816 -7.02667 104.552 -5.23775 92.9258 -4.35201C79.9906 -3.3665 67.0593 -1.42685 54.6917 2.59057C37.8731 8.05383 21.9927 17.6261 11.4006 31.7866C9.31086 34.5804 7.29563 37.8334 5.50713 41.3694Z" fill="white"/>
<g opacity="0.8">
<path d="M-31.6621 27.9146C-39.4543 45.418 -43.3912 67.276 -35.8542 83.7375C-20.4816 117.312 24.477 124.181 47.4014 95.7426C54.4066 87.0522 61.412 77.318 71.9823 73.7311C91.6973 67.0409 111.758 78.2943 131.699 67.7814C152.95 56.5779 167.895 33.4291 192.688 29.0827C207.715 26.4484 221.275 32.0626 235.67 30.5252C242.839 29.7596 250.215 28.1473 255.891 23.7033C270.837 12.0026 267.408 -12.0446 258.212 -25.8725C250.997 -36.7225 240.192 -44.8819 228.35 -50.3164C201.394 -62.6861 170.688 -56.1507 142.41 -52.6143C125.463 -50.495 109.19 -47.079 92.3266 -44.952C73.5639 -42.5855 54.8756 -38.83 37.1576 -32.0898C13.0633 -22.924 -9.36918 -7.84296 -23.7713 13.5376C-26.6129 17.7558 -29.3127 22.6373 -31.6621 27.9146Z" fill="#EC4D73"/>
<path d="M-31.6621 27.9146C-39.4543 45.418 -43.3912 67.276 -35.8542 83.7375C-20.4816 117.312 24.477 124.181 47.4014 95.7426C54.4066 87.0522 61.412 77.318 71.9823 73.7311C91.6973 67.0409 111.758 78.2943 131.699 67.7814C152.95 56.5779 167.895 33.4291 192.688 29.0827C207.715 26.4484 221.275 32.0626 235.67 30.5252C242.839 29.7596 250.215 28.1473 255.891 23.7033C270.837 12.0026 267.408 -12.0446 258.212 -25.8725C250.997 -36.7225 240.192 -44.8819 228.35 -50.3164C201.394 -62.6861 170.688 -56.1507 142.41 -52.6143C125.463 -50.495 109.19 -47.079 92.3266 -44.952C73.5639 -42.5855 54.8756 -38.83 37.1576 -32.0898C13.0633 -22.924 -9.36918 -7.84296 -23.7713 13.5376C-26.6129 17.7558 -29.3127 22.6373 -31.6621 27.9146Z" fill="url(#paint0_linear_16912_76292)"/>
</g>
<g opacity="0.4">
<g style="mix-blend-mode:multiply" opacity="0.75">
<path d="M25.8702 84.516C25.2917 85.095 25.2835 86.0261 25.8428 86.6167C26.3137 85.7907 26.7416 84.9469 27.1263 84.0884C26.68 84.0315 26.2133 84.173 25.8702 84.516Z" fill="white"/>
</g>
<g style="mix-blend-mode:multiply" opacity="0.75">
<path d="M23.735 88.7757C23.1466 88.1874 22.1935 88.1874 21.6052 88.7757C21.017 89.3639 21.017 90.318 21.6052 90.9064C21.8542 91.1555 22.1689 91.2979 22.4935 91.3361C23.0576 90.6861 23.5886 90.0174 24.0865 89.3321C24.0136 89.1291 23.8977 88.9382 23.735 88.7757Z" fill="white"/>
</g>
<g style="mix-blend-mode:multiply" opacity="0.75">
<path d="M19.4775 93.037C18.8892 92.4486 17.9359 92.4486 17.3477 93.037C16.7591 93.6254 16.7591 94.5789 17.3477 95.1676C17.5351 95.3552 17.76 95.4823 17.9981 95.5503C18.6527 95.0535 19.2921 94.5272 19.9129 93.9686C19.8827 93.6288 19.7379 93.2971 19.4775 93.037Z" fill="white"/>
</g>
<g style="mix-blend-mode:multiply" opacity="0.75">
<path d="M15.215 97.2985C14.6261 96.7097 13.6737 96.7097 13.0848 97.2985C12.69 97.6932 12.5614 98.252 12.6963 98.7549C13.5776 98.3423 14.4426 97.8836 15.288 97.3793C15.2643 97.352 15.2409 97.3245 15.215 97.2985Z" fill="white"/>
</g>
<g style="mix-blend-mode:multiply" opacity="0.75">
<path d="M29.693 72.8629C29.6952 72.7868 29.6978 72.7108 29.6994 72.6348C29.6912 72.7106 29.6898 72.7868 29.693 72.8629Z" fill="white"/>
</g>
<g style="mix-blend-mode:multiply" opacity="0.75">
<path d="M25.8709 75.993C25.2826 76.5814 25.2826 77.5353 25.8709 78.1237C26.4594 78.7121 27.4131 78.7121 28.0017 78.1237C28.5892 77.5353 28.5892 76.5814 28.0007 75.993C27.4124 75.4047 26.4594 75.4047 25.8709 75.993Z" fill="white"/>
</g>
<g style="mix-blend-mode:multiply" opacity="0.75">
<path d="M21.6052 80.2546C21.017 80.8431 21.017 81.797 21.6052 82.3855C22.1935 82.9737 23.1475 82.9737 23.7357 82.3855C24.3236 81.797 24.3236 80.8431 23.735 80.2546C23.1466 79.6664 22.1935 79.6664 21.6052 80.2546Z" fill="white"/>
</g>
<g style="mix-blend-mode:multiply" opacity="0.75">
<path d="M17.3477 84.516C16.7591 85.1047 16.7591 86.0582 17.3477 86.647C17.9359 87.2354 18.8899 87.2354 19.4785 86.647C20.0664 86.0582 20.0664 85.1047 19.4775 84.516C18.8892 83.9276 17.9359 83.9276 17.3477 84.516Z" fill="white"/>
</g>
<g style="mix-blend-mode:multiply" opacity="0.75">
<path d="M13.0857 88.7757C12.4975 89.3639 12.4975 90.318 13.0857 90.9064C13.6744 91.4948 14.628 91.4948 15.2166 90.9064C15.8043 90.318 15.8043 89.3639 15.2155 88.7757C14.6273 88.1874 13.6744 88.1874 13.0857 88.7757Z" fill="white"/>
</g>
<g style="mix-blend-mode:multiply" opacity="0.75">
<path d="M8.82398 93.037C8.23576 93.6254 8.23576 94.5789 8.82398 95.1676C9.41286 95.7561 10.3662 95.7561 10.9548 95.1676C11.5427 94.5789 11.5427 93.6254 10.9538 93.037C10.3656 92.4486 9.41286 92.4486 8.82398 93.037Z" fill="white"/>
</g>
<g style="mix-blend-mode:multiply" opacity="0.75">
<path d="M4.56275 97.2985C3.97387 97.8868 3.97387 98.8404 4.56275 99.4287C5.15141 100.018 6.10469 100.018 6.69288 99.4287C7.28115 98.8404 7.28115 97.8868 6.69258 97.2985C6.10359 96.7097 5.15141 96.7097 4.56275 97.2985Z" fill="white"/>
</g>
<g style="mix-blend-mode:multiply" opacity="0.75">
<path d="M0.328125 101.533C0.991107 101.53 1.65406 101.505 2.31569 101.457C1.73406 100.981 0.881145 101.008 0.328125 101.533Z" fill="white"/>
</g>
<g style="mix-blend-mode:multiply" opacity="0.75">
<path d="M28.0007 67.4714C27.4124 66.8832 26.4594 66.8832 25.8709 67.4714C25.2826 68.0598 25.2826 69.0139 25.8709 69.6023C26.4594 70.1905 27.4131 70.1905 28.0017 69.6023C28.5892 69.0139 28.5892 68.0598 28.0007 67.4714Z" fill="white"/>
</g>
<g style="mix-blend-mode:multiply" opacity="0.75">
<path d="M23.735 71.7328C23.1466 71.1444 22.1935 71.1444 21.6052 71.7328C21.017 72.3212 21.017 73.2751 21.6052 73.8635C22.1935 74.4518 23.1475 74.4518 23.7357 73.8635C24.3236 73.2751 24.3236 72.3212 23.735 71.7328Z" fill="white"/>
</g>
<g style="mix-blend-mode:multiply" opacity="0.75">
<path d="M19.4775 75.993C18.8892 75.4047 17.9359 75.4047 17.3477 75.993C16.7591 76.5814 16.7591 77.5353 17.3477 78.1237C17.9359 78.7121 18.8899 78.7121 19.4785 78.1237C20.0664 77.5353 20.0664 76.5814 19.4775 75.993Z" fill="white"/>
</g>
<g style="mix-blend-mode:multiply" opacity="0.75">
<path d="M15.2155 80.2546C14.6273 79.6664 13.6744 79.6664 13.0857 80.2546C12.4975 80.8431 12.4975 81.797 13.0857 82.3855C13.6744 82.9737 14.628 82.9737 15.2166 82.3855C15.8043 81.797 15.8043 80.8431 15.2155 80.2546Z" fill="white"/>
</g>
<g style="mix-blend-mode:multiply" opacity="0.75">
<path d="M10.9538 84.516C10.3656 83.9276 9.41286 83.9276 8.82398 84.516C8.23576 85.1047 8.23576 86.0582 8.82398 86.647C9.41286 87.2354 10.3662 87.2354 10.9548 86.647C11.5427 86.0582 11.5427 85.1047 10.9538 84.516Z" fill="white"/>
</g>
<g style="mix-blend-mode:multiply" opacity="0.75">
<path d="M6.69258 88.7772C6.10359 88.1888 5.15141 88.1888 4.56275 88.7772C3.97387 89.3659 3.97387 90.3194 4.56275 90.9078C5.15141 91.4967 6.10469 91.4967 6.69288 90.9078C7.28115 90.3194 7.28115 89.3659 6.69258 88.7772Z" fill="white"/>
</g>
<g style="mix-blend-mode:multiply" opacity="0.75">
<path d="M0.30056 93.037C-0.287687 93.6254 -0.287687 94.5789 0.30056 95.1676C0.889521 95.7561 1.84285 95.7561 2.4314 95.1676C3.01923 94.5789 3.01923 93.6254 2.4311 93.037C1.84219 92.4486 0.889521 92.4486 0.30056 93.037Z" fill="white"/>
</g>
<g style="mix-blend-mode:multiply" opacity="0.75">
<path d="M25.8709 61.0801C26.3701 61.5793 27.1315 61.6533 27.7104 61.3056C27.3517 60.3802 26.9445 59.4694 26.489 58.5767C26.2629 58.6467 26.0499 58.7705 25.8709 58.9496C25.2826 59.5383 25.2826 60.4918 25.8709 61.0801Z" fill="white"/>
</g>
<g style="mix-blend-mode:multiply" opacity="0.75">
<path d="M23.735 63.2098C23.1466 62.6215 22.1935 62.6215 21.6052 63.2098C21.017 63.7987 21.017 64.7521 21.6052 65.3405C22.1935 65.9289 23.1475 65.9289 23.7357 65.3405C24.3236 64.7521 24.3236 63.7987 23.735 63.2098Z" fill="white"/>
</g>
<g style="mix-blend-mode:multiply" opacity="0.75">
<path d="M19.4775 67.4714C18.8889 66.8832 17.936 66.8832 17.3474 67.4714C16.7592 68.0598 16.7592 69.0139 17.3474 69.6023C17.936 70.1905 18.8897 70.1905 19.4782 69.6023C20.0657 69.0139 20.0657 68.0598 19.4775 67.4714Z" fill="white"/>
</g>
<g style="mix-blend-mode:multiply" opacity="0.75">
<path d="M15.2155 71.7328C14.6273 71.1444 13.6744 71.1444 13.0857 71.7328C12.4975 72.3212 12.4975 73.2751 13.0857 73.8635C13.6744 74.4518 14.628 74.4518 15.2166 73.8635C15.8043 73.2751 15.8043 72.3212 15.2155 71.7328Z" fill="white"/>
</g>
<g style="mix-blend-mode:multiply" opacity="0.75">
<path d="M10.9538 75.994C10.3656 75.4057 9.41286 75.4057 8.82398 75.994C8.23576 76.5824 8.23576 77.5364 8.82398 78.1247C9.41286 78.7131 10.3662 78.7131 10.9548 78.1247C11.5427 77.5364 11.5427 76.5824 10.9538 75.994Z" fill="white"/>
</g>
<g style="mix-blend-mode:multiply" opacity="0.75">
<path d="M6.69258 80.2546C6.10359 79.6664 5.15141 79.6664 4.56275 80.2546C3.97387 80.8431 3.97387 81.797 4.56275 82.3855C5.15141 82.9737 6.10469 82.9737 6.69288 82.3855C7.28115 81.797 7.28115 80.8431 6.69258 80.2546Z" fill="white"/>
</g>
<g style="mix-blend-mode:multiply" opacity="0.75">
<path d="M2.4311 84.516C1.84219 83.9276 0.889521 83.9276 0.30056 84.516C-0.287687 85.1047 -0.287687 86.0582 0.30056 86.647C0.889521 87.2354 1.84285 87.2354 2.4314 86.647C3.01923 86.0582 3.01923 85.1047 2.4311 84.516Z" fill="white"/>
</g>
<g style="mix-blend-mode:multiply" opacity="0.75">
<path d="M23.735 54.6882C23.1466 54.1 22.1935 54.1 21.6052 54.6882C21.017 55.2771 21.017 56.2306 21.6052 56.819C22.1935 57.4078 23.1475 57.4078 23.7357 56.819C24.3236 56.2306 24.3236 55.2771 23.735 54.6882Z" fill="white"/>
</g>
<g style="mix-blend-mode:multiply" opacity="0.75">
<path d="M19.4775 58.9496C18.8889 58.3612 17.936 58.3612 17.3474 58.9496C16.7592 59.5383 16.7592 60.4919 17.3474 61.0802C17.936 61.6686 18.8897 61.6686 19.4782 61.0802C20.0657 60.4919 20.0657 59.5383 19.4775 58.9496Z" fill="white"/>
</g>
<g style="mix-blend-mode:multiply" opacity="0.75">
<path d="M15.2155 63.2098C14.6273 62.6215 13.6744 62.6215 13.0857 63.2098C12.4975 63.7987 12.4975 64.7521 13.0857 65.3405C13.6744 65.9289 14.628 65.9289 15.2166 65.3405C15.8043 64.7521 15.8043 63.7987 15.2155 63.2098Z" fill="white"/>
</g>
<g style="mix-blend-mode:multiply" opacity="0.75">
<path d="M10.9538 67.4714C10.3656 66.8832 9.41286 66.8832 8.82398 67.4714C8.23576 68.0598 8.23576 69.0139 8.82398 69.6023C9.41286 70.1905 10.3662 70.1905 10.9548 69.6023C11.5427 69.0139 11.5427 68.0598 10.9538 67.4714Z" fill="white"/>
</g>
<g style="mix-blend-mode:multiply" opacity="0.75">
<path d="M6.69207 71.7328C6.10388 71.1444 5.15112 71.1444 4.5623 71.7328C3.97403 72.3212 3.97403 73.2751 4.5623 73.8635C5.15112 74.4518 6.1049 74.4518 6.69309 73.8635C7.28103 73.2751 7.28103 72.3212 6.69207 71.7328Z" fill="white"/>
</g>
<g style="mix-blend-mode:multiply" opacity="0.75">
<path d="M2.4311 75.994C1.84219 75.4057 0.889521 75.4057 0.30056 75.994C-0.287687 76.5824 -0.287687 77.5364 0.30056 78.1247C0.889521 78.7131 1.84285 78.7131 2.4314 78.1247C3.01923 77.5364 3.01923 76.5824 2.4311 75.994Z" fill="white"/>
</g>
<g style="mix-blend-mode:multiply" opacity="0.75">
<path d="M19.4775 50.427C18.8889 49.8381 17.936 49.8381 17.3474 50.427C16.7592 51.0154 16.7592 51.9687 17.3474 52.5577C17.936 53.146 18.8897 53.146 19.4782 52.5577C20.0657 51.9687 20.0657 51.0154 19.4775 50.427Z" fill="white"/>
</g>
<g style="mix-blend-mode:multiply" opacity="0.75">
<path d="M15.2155 54.6882C14.6273 54.1 13.6744 54.1 13.0857 54.6882C12.4975 55.2771 12.4975 56.2306 13.0857 56.819C13.6744 57.4078 14.628 57.4078 15.2166 56.819C15.8043 56.2306 15.8043 55.2771 15.2155 54.6882Z" fill="white"/>
</g>
<g style="mix-blend-mode:multiply" opacity="0.75">
<path d="M10.9538 58.9496C10.3656 58.3612 9.41286 58.3612 8.82398 58.9496C8.23576 59.5383 8.23576 60.4919 8.82398 61.0802C9.41286 61.6686 10.3662 61.6686 10.9548 61.0802C11.5427 60.4919 11.5427 59.5383 10.9538 58.9496Z" fill="white"/>
</g>
<g style="mix-blend-mode:multiply" opacity="0.75">
<path d="M6.69207 63.2109C6.10388 62.6224 5.15112 62.6224 4.5623 63.2109C3.97403 63.7992 3.97403 64.7532 4.5623 65.3414C5.15112 65.9299 6.1049 65.9299 6.69309 65.3414C7.28103 64.7532 7.28103 63.7992 6.69207 63.2109Z" fill="white"/>
</g>
<g style="mix-blend-mode:multiply" opacity="0.75">
<path d="M2.4311 67.4714C1.84219 66.8832 0.889521 66.8832 0.30056 67.4714C-0.287687 68.0598 -0.287687 69.0139 0.30056 69.6023C0.889521 70.1905 1.84285 70.1905 2.4314 69.6023C3.01923 69.0139 3.01923 68.0598 2.4311 67.4714Z" fill="white"/>
</g>
<g style="mix-blend-mode:multiply" opacity="0.75">
<path d="M13.0857 48.2974C13.6744 48.8858 14.628 48.8858 15.2166 48.2974C15.6206 47.8925 15.747 47.3155 15.5951 46.8031C14.9985 46.4371 14.3919 46.0937 13.7761 45.7739C13.5234 45.8387 13.2837 45.9686 13.0857 46.1667C12.4975 46.755 12.4975 47.7085 13.0857 48.2974Z" fill="white"/>
</g>
<g style="mix-blend-mode:multiply" opacity="0.75">
<path d="M10.954 50.4276C10.3654 49.8392 9.41249 49.8392 8.82427 50.4276C8.23566 51.0165 8.23566 51.9701 8.82427 52.5583C9.41249 53.1471 10.3665 53.1471 10.9547 52.5583C11.5422 51.9701 11.5422 51.0165 10.954 50.4276Z" fill="white"/>
</g>
<g style="mix-blend-mode:multiply" opacity="0.75">
<path d="M6.69207 54.6882C6.10388 54.1 5.15112 54.1 4.5623 54.6882C3.97403 55.2771 3.97403 56.2306 4.5623 56.819C5.15112 57.4078 6.1049 57.4078 6.69309 56.819C7.28103 56.2306 7.28103 55.2771 6.69207 54.6882Z" fill="white"/>
</g>
<g style="mix-blend-mode:multiply" opacity="0.75">
<path d="M2.4311 58.9496C1.84219 58.3612 0.889521 58.3612 0.30056 58.9496C-0.287687 59.5383 -0.287687 60.4919 0.30056 61.0802C0.889521 61.6686 1.84285 61.6686 2.4314 61.0802C3.01923 60.4919 3.01923 59.5383 2.4311 58.9496Z" fill="white"/>
</g>
<g style="mix-blend-mode:multiply" opacity="0.75">
<path d="M8.82412 44.0359C9.28612 44.4981 9.97326 44.5955 10.5322 44.3316C9.87939 44.0876 9.21992 43.8667 8.55469 43.6704C8.62377 43.802 8.71355 43.9253 8.82412 44.0359Z" fill="white"/>
</g>
<g style="mix-blend-mode:multiply" opacity="0.75">
<path d="M6.69207 46.1668C6.10388 45.5779 5.15112 45.5779 4.5623 46.1668C3.97403 46.7551 3.97403 47.7086 4.5623 48.2975C5.15112 48.8858 6.1049 48.8858 6.69309 48.2975C7.28103 47.7086 7.28103 46.7551 6.69207 46.1668Z" fill="white"/>
</g>
<g style="mix-blend-mode:multiply" opacity="0.75">
<path d="M2.4311 50.4276C1.84219 49.8392 0.889521 49.8392 0.30056 50.4276C-0.287687 51.0165 -0.287687 51.9701 0.30056 52.5583C0.889521 53.1471 1.84285 53.1471 2.4314 52.5583C3.01923 51.9701 3.01923 51.0165 2.4311 50.4276Z" fill="white"/>
</g>
<g style="mix-blend-mode:multiply" opacity="0.75">
<path d="M0.299259 44.0359C0.88822 44.6243 1.84155 44.6243 2.4301 44.0359C2.82417 43.6415 2.95275 43.0831 2.81833 42.5803C1.8636 42.4948 0.905565 42.4557 -0.0522957 42.4627C-0.242237 42.9941 -0.1262 43.6104 0.299259 44.0359Z" fill="white"/>
</g>
</g>
<defs>
<linearGradient id="paint0_linear_16912_76292" x1="16.9164" y1="-81.2125" x2="281.626" y2="64.1988" gradientUnits="userSpaceOnUse">
<stop stop-color="#FF9966"/>
<stop offset="1" stop-color="#DB36A4"/>
</linearGradient>
</defs>
</svg>
