<svg width="729" height="305" viewBox="0 0 729 305" fill="none" xmlns="http://www.w3.org/2000/svg">
<g opacity="0.8">
<path d="M-122.677 59.7564C-144.945 109.777 -156.196 172.243 -134.657 219.286C-90.725 315.236 37.7573 334.867 103.27 253.595C123.29 228.759 143.31 200.941 173.518 190.69C229.859 171.571 287.189 203.731 344.176 173.687C404.906 141.67 447.616 75.5158 518.47 63.0946C561.414 55.5662 600.164 71.6104 641.303 67.2168C661.789 65.029 682.868 60.4213 699.091 47.7213C741.802 14.2832 732.003 -54.4386 705.724 -93.956C685.104 -124.963 654.227 -148.281 620.383 -163.812C543.35 -199.162 455.598 -180.485 374.785 -170.378C326.353 -164.322 279.85 -154.56 231.657 -148.481C178.037 -141.718 124.63 -130.986 73.9959 -111.724C5.13936 -85.5299 -58.968 -42.4313 -100.126 18.6698C-108.247 30.7247 -115.962 44.675 -122.677 59.7564Z" fill="#EC4D73"/>
<path d="M-122.677 59.7564C-144.945 109.777 -156.196 172.243 -134.657 219.286C-90.725 315.236 37.7573 334.867 103.27 253.595C123.29 228.759 143.31 200.941 173.518 190.69C229.859 171.571 287.189 203.731 344.176 173.687C404.906 141.67 447.616 75.5158 518.47 63.0946C561.414 55.5662 600.164 71.6104 641.303 67.2168C661.789 65.029 682.868 60.4213 699.091 47.7213C741.802 14.2832 732.003 -54.4386 705.724 -93.956C685.104 -124.963 654.227 -148.281 620.383 -163.812C543.35 -199.162 455.598 -180.485 374.785 -170.378C326.353 -164.322 279.85 -154.56 231.657 -148.481C178.037 -141.718 124.63 -130.986 73.9959 -111.724C5.13936 -85.5299 -58.968 -42.4313 -100.126 18.6698C-108.247 30.7247 -115.962 44.675 -122.677 59.7564Z" fill="url(#paint0_linear_16912_75939)"/>
</g>
<defs>
<linearGradient id="paint0_linear_16912_75939" x1="16.1508" y1="-252.106" x2="772.637" y2="163.449" gradientUnits="userSpaceOnUse">
<stop stop-color="#FF9966"/>
<stop offset="1" stop-color="#DB36A4"/>
</linearGradient>
</defs>
</svg>
