<svg width="726" height="360" viewBox="0 0 726 360" fill="none" xmlns="http://www.w3.org/2000/svg">
<path opacity="0.8" d="M591.109 351.963C608.061 318.446 617.887 276.03 604.724 243.07C589.225 204.262 542.43 178.471 503.02 172.492C459.159 165.838 425.867 178.146 393.216 204.295C360.591 230.423 315.601 246.209 274.924 253.326C211.933 264.347 125.141 246.827 68.6981 282.244C21.6362 311.776 -12.6467 377.218 18.333 429.202C31.4095 451.145 51.7738 468.167 74.4347 479.954C126.015 506.785 186.77 496.963 242.48 492.777C275.868 490.269 308.06 485.157 341.285 482.625C378.251 479.809 415.206 474.266 450.55 462.785C498.614 447.172 543.997 419.816 574.267 379.349C580.239 371.365 585.998 362.068 591.109 351.963Z" fill="white"/>
<g opacity="0.75">
<path d="M160.896 271.637C167.423 271.637 172.713 266.346 172.713 259.819C172.713 253.292 167.423 248.001 160.896 248.001C154.369 248.001 149.078 253.292 149.078 259.819C149.078 266.346 154.369 271.637 160.896 271.637Z" fill="#FDE43E"/>
<path d="M160.896 271.637C167.423 271.637 172.713 266.346 172.713 259.819C172.713 253.292 167.423 248.001 160.896 248.001C154.369 248.001 149.078 253.292 149.078 259.819C149.078 266.346 154.369 271.637 160.896 271.637Z" fill="url(#paint0_linear_15191_43731)"/>
<path d="M607.217 72.4263C623.666 72.4263 637.001 59.0917 637.001 42.6427C637.001 26.1936 623.666 12.859 607.217 12.859C590.768 12.859 577.434 26.1936 577.434 42.6427C577.434 59.0917 590.768 72.4263 607.217 72.4263Z" fill="#FDE43E"/>
<path d="M607.217 72.4263C623.666 72.4263 637.001 59.0917 637.001 42.6427C637.001 26.1936 623.666 12.859 607.217 12.859C590.768 12.859 577.434 26.1936 577.434 42.6427C577.434 59.0917 590.768 72.4263 607.217 72.4263Z" fill="url(#paint1_linear_15191_43731)"/>
<path d="M967.815 271.423C989.533 212.57 997.724 140.313 969.58 88.1403C912.178 -18.2703 763.819 -31.1047 694.998 66.7117C673.968 96.6026 653.16 129.904 619.391 143.882C556.408 169.955 488.458 137.475 425.554 176.085C358.518 217.232 314.636 296.059 234.559 315.559C186.026 327.378 140.524 311.933 93.8189 320.033C70.5616 324.066 46.8069 330.911 29.2102 346.644C-17.12 388.067 -0.776541 465.902 32.2233 509.116C58.1163 543.023 95.1609 567.372 135.015 582.597C225.729 617.25 324.657 589.334 416.292 571.736C471.21 561.189 523.646 546.55 578.289 535.996C639.085 524.254 699.342 507.99 755.79 482.181C832.553 447.084 902.622 393.016 945.107 320.083C953.489 305.693 961.267 289.167 967.815 271.423Z" fill="#FFDE00"/>
<path d="M967.815 271.423C989.533 212.57 997.724 140.313 969.58 88.1403C912.178 -18.2703 763.819 -31.1047 694.998 66.7117C673.968 96.6026 653.16 129.904 619.391 143.882C556.408 169.955 488.458 137.475 425.554 176.085C358.518 217.232 314.636 296.059 234.559 315.559C186.026 327.378 140.524 311.933 93.8189 320.033C70.5616 324.066 46.8069 330.911 29.2102 346.644C-17.12 388.067 -0.776541 465.902 32.2233 509.116C58.1163 543.023 95.1609 567.372 135.015 582.597C225.729 617.25 324.657 589.334 416.292 571.736C471.21 561.189 523.646 546.55 578.289 535.996C639.085 524.254 699.342 507.99 755.79 482.181C832.553 447.084 902.622 393.016 945.107 320.083C953.489 305.693 961.267 289.167 967.815 271.423Z" fill="url(#paint2_linear_15191_43731)"/>
</g>
<path opacity="0.75" d="M467.905 349.254C466.142 347.491 463.287 347.491 461.524 349.254C459.763 351.017 459.763 353.872 461.524 355.636C463.287 357.398 466.144 357.398 467.907 355.636C469.666 353.872 469.666 351.017 467.905 349.254Z" fill="white" fill-opacity="0.4"/>
<path opacity="0.75" d="M448.759 342.876C450.522 344.638 453.378 344.638 455.141 342.876C456.351 341.663 456.73 339.935 456.275 338.4C454.488 337.304 452.671 336.275 450.827 335.317C450.07 335.511 449.352 335.9 448.759 336.494C446.997 338.256 446.997 341.112 448.759 342.876Z" fill="white" fill-opacity="0.4"/>
<path opacity="0.75" d="M442.377 349.255C440.614 347.493 437.76 347.493 435.998 349.255C434.235 351.019 434.235 353.875 435.998 355.637C437.76 357.401 440.617 357.401 442.379 355.637C444.139 353.875 444.139 351.019 442.377 349.255Z" fill="white" fill-opacity="0.4"/>
<path opacity="0.75" d="M435.998 330.111C437.382 331.496 439.44 331.787 441.114 330.997C439.159 330.266 437.184 329.605 435.191 329.017C435.398 329.411 435.667 329.78 435.998 330.111Z" fill="white" fill-opacity="0.4"/>
<path opacity="0.75" d="M429.615 336.494C427.853 334.73 424.999 334.73 423.236 336.494C421.474 338.256 421.474 341.112 423.236 342.876C424.999 344.638 427.856 344.638 429.618 342.876C431.379 341.112 431.379 338.256 429.615 336.494Z" fill="white" fill-opacity="0.4"/>
<path opacity="0.75" d="M416.855 349.255C415.091 347.493 412.238 347.493 410.474 349.255C408.712 351.019 408.712 353.875 410.474 355.637C412.238 357.401 415.093 357.401 416.856 355.637C418.617 353.875 418.617 351.019 416.855 349.255Z" fill="white" fill-opacity="0.4"/>
<path opacity="0.75" d="M410.474 330.111C412.238 331.874 415.093 331.874 416.856 330.111C418.036 328.93 418.421 327.258 418.019 325.752C415.159 325.495 412.29 325.378 409.421 325.399C408.852 326.991 409.199 328.837 410.474 330.111Z" fill="white" fill-opacity="0.4"/>
<path opacity="0.75" d="M404.093 336.494C402.329 334.73 399.475 334.73 397.713 336.494C395.95 338.256 395.95 341.112 397.713 342.876C399.475 344.638 402.332 344.638 404.094 342.876C405.854 341.112 405.854 338.256 404.093 336.494Z" fill="white" fill-opacity="0.4"/>
<path opacity="0.75" d="M391.327 349.255C389.564 347.493 386.71 347.493 384.948 349.255C383.184 351.019 383.184 353.875 384.948 355.637C386.71 357.401 389.566 357.401 391.329 355.637C393.089 353.875 393.089 351.019 391.327 349.255Z" fill="white" fill-opacity="0.4"/>
<path opacity="0.75" d="M384.95 330.114C386.712 331.876 389.568 331.876 391.331 330.114C392.161 329.283 392.594 328.209 392.641 327.121C389.824 327.685 387.028 328.387 384.266 329.227C384.454 329.542 384.679 329.842 384.95 330.114Z" fill="white" fill-opacity="0.4"/>
<path opacity="0.75" d="M378.564 336.494C376.802 334.73 373.947 334.73 372.185 336.494C370.423 338.256 370.423 341.112 372.185 342.876C373.947 344.638 376.803 344.638 378.566 342.876C380.326 341.112 380.326 338.256 378.564 336.494Z" fill="white" fill-opacity="0.4"/>
<path opacity="0.75" d="M365.803 349.255C364.041 347.493 361.186 347.493 359.424 349.255C357.661 351.019 357.661 353.875 359.424 355.637C361.186 357.401 364.042 357.401 365.806 355.637C367.565 353.875 367.565 351.019 365.803 349.255Z" fill="white" fill-opacity="0.4"/>
<defs>
<linearGradient id="paint0_linear_15191_43731" x1="183.784" y1="-82.5986" x2="1068.59" y2="365.263" gradientUnits="userSpaceOnUse">
<stop stop-color="#FF9966"/>
<stop offset="1" stop-color="#DB36A4"/>
</linearGradient>
<linearGradient id="paint1_linear_15191_43731" x1="183.784" y1="-82.5986" x2="1068.59" y2="365.263" gradientUnits="userSpaceOnUse">
<stop stop-color="#FF9966"/>
<stop offset="1" stop-color="#DB36A4"/>
</linearGradient>
<linearGradient id="paint2_linear_15191_43731" x1="183.784" y1="-82.5986" x2="1068.59" y2="365.263" gradientUnits="userSpaceOnUse">
<stop stop-color="#FF9966"/>
<stop offset="1" stop-color="#DB36A4"/>
</linearGradient>
</defs>
</svg>
