<svg width="201" height="96" viewBox="0 0 201 96" fill="none" xmlns="http://www.w3.org/2000/svg">
<path opacity="0.8" d="M172.255 102.271C177.183 92.5299 180.038 80.2018 176.213 70.6221C171.708 59.3428 158.107 51.8469 146.653 50.1091C133.905 48.1752 124.229 51.7524 114.739 59.3526C105.257 66.9466 92.181 71.5346 80.3584 73.6031C62.0504 76.8062 36.8248 71.7141 20.4202 82.008C6.74197 90.591 -3.2221 109.611 5.78193 124.72C9.58254 131.098 15.5013 136.045 22.0875 139.471C37.079 147.269 54.7371 144.414 70.9289 143.198C80.6329 142.469 89.9892 140.983 99.6457 140.247C110.39 139.429 121.13 137.818 131.403 134.481C145.372 129.943 158.563 121.992 167.36 110.231C169.096 107.91 170.77 105.208 172.255 102.271Z" fill="white"/>
<g opacity="0.75">
<path d="M47.2172 78.9247C49.1141 78.9247 50.6519 77.3869 50.6519 75.49C50.6519 73.593 49.1141 72.0553 47.2172 72.0553C45.3202 72.0553 43.7824 73.593 43.7824 75.49C43.7824 77.3869 45.3202 78.9247 47.2172 78.9247Z" fill="#FDE43E"/>
<path d="M47.2172 78.9247C49.1141 78.9247 50.6519 77.3869 50.6519 75.49C50.6519 73.593 49.1141 72.0553 47.2172 72.0553C45.3202 72.0553 43.7824 73.593 43.7824 75.49C43.7824 77.3869 45.3202 78.9247 47.2172 78.9247Z" fill="url(#paint0_linear_16912_76204)"/>
<path d="M176.938 21.0256C181.718 21.0256 185.594 17.15 185.594 12.3692C185.594 7.58835 181.718 3.71274 176.938 3.71274C172.157 3.71274 168.281 7.58835 168.281 12.3692C168.281 17.15 172.157 21.0256 176.938 21.0256Z" fill="#FDE43E"/>
<path d="M176.938 21.0256C181.718 21.0256 185.594 17.15 185.594 12.3692C185.594 7.58835 181.718 3.71274 176.938 3.71274C172.157 3.71274 168.281 7.58835 168.281 12.3692C168.281 17.15 172.157 21.0256 176.938 21.0256Z" fill="url(#paint1_linear_16912_76204)"/>
<path d="M281.743 78.8626C288.055 61.7573 290.436 40.7563 282.256 25.5927C265.572 -5.3348 222.453 -9.06503 202.451 19.3647C196.338 28.0523 190.291 37.731 180.476 41.7938C162.17 49.3715 142.421 39.9315 124.138 51.1533C104.655 63.1123 91.9006 86.0229 68.6269 91.6904C54.5209 95.1255 41.2962 90.6366 27.7217 92.9908C20.9621 94.1631 14.058 96.1524 8.9436 100.725C-4.52197 112.764 0.228139 135.387 9.81934 147.946C17.345 157.801 28.1117 164.878 39.6951 169.303C66.0606 179.375 94.8133 171.261 121.446 166.147C137.408 163.081 152.648 158.827 168.53 155.759C186.2 152.346 203.713 147.619 220.119 140.118C242.43 129.917 262.795 114.203 275.143 93.0052C277.579 88.8231 279.84 84.0199 281.743 78.8626Z" fill="#FFDE00"/>
<path d="M281.743 78.8626C288.055 61.7573 290.436 40.7563 282.256 25.5927C265.572 -5.3348 222.453 -9.06503 202.451 19.3647C196.338 28.0523 190.291 37.731 180.476 41.7938C162.17 49.3715 142.421 39.9315 124.138 51.1533C104.655 63.1123 91.9006 86.0229 68.6269 91.6904C54.5209 95.1255 41.2962 90.6366 27.7217 92.9908C20.9621 94.1631 14.058 96.1524 8.9436 100.725C-4.52197 112.764 0.228139 135.387 9.81934 147.946C17.345 157.801 28.1117 164.878 39.6951 169.303C66.0606 179.375 94.8133 171.261 121.446 166.147C137.408 163.081 152.648 158.827 168.53 155.759C186.2 152.346 203.713 147.619 220.119 140.118C242.43 129.917 262.795 114.203 275.143 93.0052C277.579 88.8231 279.84 84.0199 281.743 78.8626Z" fill="url(#paint2_linear_16912_76204)"/>
</g>
<path opacity="0.75" d="M127.172 95.9202C127.574 96.3226 128.172 96.4074 128.659 96.1777C128.091 95.9652 127.517 95.7729 126.938 95.6021C126.998 95.7166 127.076 95.8239 127.172 95.9202Z" fill="white" fill-opacity="0.4"/>
<path opacity="0.75" d="M119.754 95.92C120.267 96.4322 121.097 96.4322 121.609 95.92C121.952 95.5767 122.064 95.0906 121.947 94.6529C121.116 94.5784 120.282 94.5444 119.448 94.5505C119.283 95.0131 119.384 95.5496 119.754 95.92Z" fill="white" fill-opacity="0.4"/>
<path opacity="0.75" d="M112.336 95.9205C112.848 96.4328 113.678 96.4328 114.19 95.9205C114.431 95.6791 114.557 95.3669 114.571 95.0508C113.752 95.2145 112.94 95.4186 112.137 95.6628C112.191 95.7545 112.257 95.8416 112.336 95.9205Z" fill="white" fill-opacity="0.4"/>
<defs>
<linearGradient id="paint0_linear_16912_76204" x1="53.8695" y1="-24.0314" x2="311.032" y2="106.137" gradientUnits="userSpaceOnUse">
<stop stop-color="#FF9966"/>
<stop offset="1" stop-color="#DB36A4"/>
</linearGradient>
<linearGradient id="paint1_linear_16912_76204" x1="53.8695" y1="-24.0314" x2="311.032" y2="106.137" gradientUnits="userSpaceOnUse">
<stop stop-color="#FF9966"/>
<stop offset="1" stop-color="#DB36A4"/>
</linearGradient>
<linearGradient id="paint2_linear_16912_76204" x1="53.8695" y1="-24.0314" x2="311.032" y2="106.137" gradientUnits="userSpaceOnUse">
<stop stop-color="#FF9966"/>
<stop offset="1" stop-color="#DB36A4"/>
</linearGradient>
</defs>
</svg>
