<svg width="81" height="81" viewBox="0 0 81 81" fill="none" xmlns="http://www.w3.org/2000/svg">
<path fill-rule="evenodd" clip-rule="evenodd" d="M40.5 80.0635C62.5914 80.0635 80.5 62.1549 80.5 40.0635C80.5 17.9721 62.5914 0.0634766 40.5 0.0634766C18.4086 0.0634766 0.5 17.9721 0.5 40.0635C0.5 62.1549 18.4086 80.0635 40.5 80.0635Z" fill="#FFB500"/>
<path fill-rule="evenodd" clip-rule="evenodd" d="M40.5 40.0635C44.92 40.0635 48.5 36.4835 48.5 32.0635C48.5 27.6435 44.92 24.0635 40.5 24.0635C36.08 24.0635 32.5 27.6435 32.5 32.0635C32.5 36.4835 36.08 40.0635 40.5 40.0635ZM40.5 44.0635C35.16 44.0635 24.5 46.7435 24.5 52.0635V56.0635H56.5V52.0635C56.5 46.7435 45.84 44.0635 40.5 44.0635Z" fill="white"/>
</svg>
